<svg style="display:none;">
    <symbol xmlns="http://www.w3.org/2000/svg" viewBox="0 0 20 20" fill="currentColor" id="reload">
      <path fill-rule="evenodd" d="M15.312 11.424a5.5 5.5 0 0 1-9.201 2.466l-.312-.311h2.433a.75.75 0 0 0 0-1.5H3.989a.75.75 0 0 0-.75.75v4.242a.75.75 0 0 0 1.5 0v-2.43l.31.31a7 7 0 0 0 11.712-3.138.75.75 0 0 0-1.449-.39Zm1.23-3.723a.75.75 0 0 0 .219-.53V2.929a.75.75 0 0 0-1.5 0V5.36l-.31-.31A7 7 0 0 0 3.239 8.188a.75.75 0 1 0 1.448.389A5.5 5.5 0 0 1 13.89 6.11l.311.31h-2.432a.75.75 0 0 0 0 1.5h4.243a.75.75 0 0 0 .53-.219Z" clip-rule="evenodd" />
    </symbol>

    <symbol xmlns="http://www.w3.org/2000/svg" viewBox="0 0 16 16" fill="none" id="progress">
        <path fill-rule="evenodd" clip-rule="evenodd" d="M8.00001 2.65001C5.04528 2.65001 2.65001 5.04528 2.65001 8.00001C2.65001 10.9547 5.04528 13.35 8.00001 13.35C10.9547 13.35 13.35 10.9547 13.35 8.00001H14.65C14.65 11.6727 11.6727 14.65 8.00001 14.65C4.32731 14.65 1.35001 11.6727 1.35001 8.00001C1.35001 4.32731 4.32731 1.35001 8.00001 1.35001V2.65001Z" fill="currentColor"/>
    </symbol>

    <symbol xmlns="http://www.w3.org/2000/svg" viewBox="0 0 20 20" fill="currentColor" id="play">
        <path d="M6.3 2.84A1.5 1.5 0 0 0 4 4.11v11.78a1.5 1.5 0 0 0 2.3 1.27l9.344-5.891a1.5 1.5 0 0 0 0-2.538L6.3 2.841Z" />
    </symbol>

    <symbol xmlns="http://www.w3.org/2000/svg" viewBox="0 0 20 20" fill="currentColor" id="code">
        <path fill-rule="evenodd" d="M3.25 3A2.25 2.25 0 0 0 1 5.25v9.5A2.25 2.25 0 0 0 3.25 17h13.5A2.25 2.25 0 0 0 19 14.75v-9.5A2.25 2.25 0 0 0 16.75 3H3.25Zm.943 8.752a.75.75 0 0 1 .055-1.06L6.128 9l-1.88-1.693a.75.75 0 1 1 1.004-1.114l2.5 2.25a.75.75 0 0 1 0 1.114l-2.5 2.25a.75.75 0 0 1-1.06-.055ZM9.75 10.25a.75.75 0 0 0 0 1.5h2.5a.75.75 0 0 0 0-1.5h-2.5Z" clip-rule="evenodd" />
    </symbol>
</svg>