<svg style="display:none;">
    <symbol xmlns="http://www.w3.org/2000/svg" viewBox="0 0 20 20" fill="currentColor" id="reload">
      <path fill-rule="evenodd" d="M15.312 11.424a5.5 5.5 0 0 1-9.201 2.466l-.312-.311h2.433a.75.75 0 0 0 0-1.5H3.989a.75.75 0 0 0-.75.75v4.242a.75.75 0 0 0 1.5 0v-2.43l.31.31a7 7 0 0 0 11.712-3.138.75.75 0 0 0-1.449-.39Zm1.23-3.723a.75.75 0 0 0 .219-.53V2.929a.75.75 0 0 0-1.5 0V5.36l-.31-.31A7 7 0 0 0 3.239 8.188a.75.75 0 1 0 1.448.389A5.5 5.5 0 0 1 13.89 6.11l.311.31h-2.432a.75.75 0 0 0 0 1.5h4.243a.75.75 0 0 0 .53-.219Z" clip-rule="evenodd" />
    </symbol>

    <symbol xmlns="http://www.w3.org/2000/svg" viewBox="0 0 16 16" fill="none" id="progress">
        <path fill-rule="evenodd" clip-rule="evenodd" d="M8.00001 2.65001C5.04528 2.65001 2.65001 5.04528 2.65001 8.00001C2.65001 10.9547 5.04528 13.35 8.00001 13.35C10.9547 13.35 13.35 10.9547 13.35 8.00001H14.65C14.65 11.6727 11.6727 14.65 8.00001 14.65C4.32731 14.65 1.35001 11.6727 1.35001 8.00001C1.35001 4.32731 4.32731 1.35001 8.00001 1.35001V2.65001Z" fill="currentColor"/>
    </symbol>

    <symbol xmlns="http://www.w3.org/2000/svg" viewBox="0 0 20 20" fill="currentColor" id="play">
        <path d="M6.3 2.84A1.5 1.5 0 0 0 4 4.11v11.78a1.5 1.5 0 0 0 2.3 1.27l9.344-5.891a1.5 1.5 0 0 0 0-2.538L6.3 2.841Z" />
    </symbol>

    <symbol xmlns="http://www.w3.org/2000/svg" viewBox="0 0 20 20" fill="currentColor" id="terminal">
        <path fill-rule="evenodd" d="M3.25 3A2.25 2.25 0 0 0 1 5.25v9.5A2.25 2.25 0 0 0 3.25 17h13.5A2.25 2.25 0 0 0 19 14.75v-9.5A2.25 2.25 0 0 0 16.75 3H3.25Zm.943 8.752a.75.75 0 0 1 .055-1.06L6.128 9l-1.88-1.693a.75.75 0 1 1 1.004-1.114l2.5 2.25a.75.75 0 0 1 0 1.114l-2.5 2.25a.75.75 0 0 1-1.06-.055ZM9.75 10.25a.75.75 0 0 0 0 1.5h2.5a.75.75 0 0 0 0-1.5h-2.5Z" clip-rule="evenodd" />
    </symbol>

    <symbol xmlns="http://www.w3.org/2000/svg" viewBox="0 0 20 20" fill="currentColor" id="code">
      <path fill-rule="evenodd" d="M6.28 5.22a.75.75 0 0 1 0 1.06L2.56 10l3.72 3.72a.75.75 0 0 1-1.06 1.06L.97 10.53a.75.75 0 0 1 0-1.06l4.25-4.25a.75.75 0 0 1 1.06 0Zm7.44 0a.75.75 0 0 1 1.06 0l4.25 4.25a.75.75 0 0 1 0 1.06l-4.25 4.25a.75.75 0 0 1-1.06-1.06L17.44 10l-3.72-3.72a.75.75 0 0 1 0-1.06ZM11.377 2.011a.75.75 0 0 1 .612.867l-2.5 14.5a.75.75 0 0 1-1.478-.255l2.5-14.5a.75.75 0 0 1 .866-.612Z" clip-rule="evenodd" />
    </symbol>

    <symbol xmlns="http://www.w3.org/2000/svg" viewBox="0 0 20 20" fill="currentColor" id="clock">
        <path fill-rule="evenodd" d="M10 18a8 8 0 1 0 0-16 8 8 0 0 0 0 16Zm.75-13a.75.75 0 0 0-1.5 0v5c0 .414.336.75.75.75h4a.75.75 0 0 0 0-1.5h-3.25V5Z" clip-rule="evenodd" />
    </symbol>

    <symbol xmlns="http://www.w3.org/2000/svg" viewBox="0 0 20 20" fill="currentColor" id="box">
        <path fill-rule="evenodd" d="M9.638 1.093a.75.75 0 0 1 .724 0l2 1.104a.75.75 0 1 1-.724 1.313L10 2.607l-1.638.903a.75.75 0 1 1-.724-1.313l2-1.104ZM5.403 4.287a.75.75 0 0 1-.295 1.019l-.805.444.805.444a.75.75 0 0 1-.724 1.314L3.5 7.02v.73a.75.75 0 0 1-1.5 0v-2a.75.75 0 0 1 .388-.657l1.996-1.1a.75.75 0 0 1 1.019.294Zm9.194 0a.75.75 0 0 1 1.02-.295l1.995 1.101A.75.75 0 0 1 18 5.75v2a.75.75 0 0 1-1.5 0v-.73l-.884.488a.75.75 0 1 1-.724-1.314l.806-.444-.806-.444a.75.75 0 0 1-.295-1.02ZM7.343 8.284a.75.75 0 0 1 1.02-.294L10 8.893l1.638-.903a.75.75 0 1 1 .724 1.313l-1.612.89v1.557a.75.75 0 0 1-1.5 0v-1.557l-1.612-.89a.75.75 0 0 1-.295-1.019ZM2.75 11.5a.75.75 0 0 1 .75.75v1.557l1.608.887a.75.75 0 0 1-.724 1.314l-1.996-1.101A.75.75 0 0 1 2 14.25v-2a.75.75 0 0 1 .75-.75Zm14.5 0a.75.75 0 0 1 .75.75v2a.75.75 0 0 1-.388.657l-1.996 1.1a.75.75 0 1 1-.724-1.313l1.608-.887V12.25a.75.75 0 0 1 .75-.75Zm-7.25 4a.75.75 0 0 1 .75.75v.73l.888-.49a.75.75 0 0 1 .724 1.313l-2 1.104a.75.75 0 0 1-.724 0l-2-1.104a.75.75 0 1 1 .724-1.313l.888.49v-.73a.75.75 0 0 1 .75-.75Z" clip-rule="evenodd" />
    </symbol>

    <symbol xmlns="http://www.w3.org/2000/svg" viewBox="0 0 20 20" fill="currentColor" id="close">
        <path d="M6.28 5.22a.75.75 0 0 0-1.06 1.06L8.94 10l-3.72 3.72a.75.75 0 1 0 1.06 1.06L10 11.06l3.72 3.72a.75.75 0 1 0 1.06-1.06L11.06 10l3.72-3.72a.75.75 0 0 0-1.06-1.06L10 8.94 6.28 5.22Z" />
    </symbol>
</svg>